# xmcd
#
# Track frame offsets: 
#        150
#        22074
#        48835
#        67554
#
# Disc length: 1192 seconds
#
# Revision: 0
# Processed by: cddbd v1.5.2PL0 Copyright (c) Steve Scherf et al.
# Submitted via: ExactAudioCopy v1.0b3
#
DISCID=2604a604
DTITLE=Lisa W. - Together Forever
DYEAR=1900
DGENRE=
TTITLE0=Together Forever (Radio Mix)
TTITLE1=Together Forever (Club Mix)
TTITLE2=Together Forever (2 Step Radio Mix)
TTITLE3=Together Forever (2 Step Club Mix)
EXTD=
EXTT0=
EXTT1=
EXTT2=
EXTT3=
PLAYORDER=
